# AST/ASF file generated using VICON BodyLanguage
# -----------------------------------------------
:version 1.10
:name VICON
:units
  mass 1.0
  length 0.45
  angle deg
:documentation
   .ast/.asf automatically generated from VICON data using
   VICON BodyBuilder and BodyLanguage model FoxedUp or BRILLIANT.MOD
:root
   order TX TY TZ RX RY RZ
   axis XYZ
   position 0 0 0  
   orientation 0 0 0 
:bonedata
  begin
     id 1 
     name lhipjoint
     direction 0.522423 -0.726805 0.445902 
     length 2.25074 
     axis 0 0 0  XYZ
  end
  begin
     id 2 
     name lfemur
     direction 0.34202 -0.939693 0  
     length 6.54609  
     axis 0 0 20  XYZ
    dof rx ry rz
    limits (-160.0 20.0)
           (-70.0 70.0)
           (-60.0 70.0)
  end
  begin
     id 3 
     name ltibia
     direction 0.34202 -0.939693 0   
     length 7.7528   
     axis 0 0 20   XYZ
    dof rx
    limits (-10.0 170.0)
  end
  begin
     id 4 
     name lfoot
     direction 0.143696 -0.394801 0.90746   
     length 1.73269   
     axis -90 7.62852e-016 20   XYZ
    dof rx rz
    limits (-45.0 90.0)
           (-70.0 20.0)
  end
  begin
     id 5 
     name ltoes
     direction 1.53633e-011 -4.21912e-011 1   
     length 0.858383   
     axis -90 7.62852e-016 20   XYZ
    dof rx
    limits (-90.0 20.0)
  end
  begin
     id 6 
     name rhipjoint
     direction -0.515943 -0.73016 0.447961   
     length 2.2404  
     axis 0 0 0  XYZ 
  end
  begin
     id 7 
     name rfemur
     direction -0.34202 -0.939693 0   
     length 6.84377   
     axis 0 0 -20   XYZ
    dof rx ry rz
    limits (-160.0 20.0)
           (-70.0 70.0)
           (-70.0 60.0)
  end
  begin
     id 8 
     name rtibia
     direction -0.34202 -0.939693 0   
     length 7.57596   
     axis 0 0 -20   XYZ
    dof rx
    limits (-10.0 170.0)
 end
 begin
     id 9 
     name rfoot
     direction -0.0999372 -0.274575 0.956358   
     length 1.78783  
     axis -90 -7.62852e-016 -20   XYZ
    dof rx rz
    limits (-45.0 90.0)
           (-20.0 70.0)
  end
  begin
     id 10 
     name rtoes
     direction -1.53535e-011 -4.21895e-011 1   
     length 0.898614   
     axis -90 -7.62852e-016 -20   XYZ
    dof rx
    limits (-90.0 20.0)
  end
  begin
     id 11 
     name lowerback
     direction -0.011775 0.996164 -0.0867116   
     length 1.91499   
     axis 0 0 0   XYZ
    dof rx ry rz
    limits (-20.0 45.0)
           (-30.0 30.0)
           (-30.0 30.0)
  end
  begin
     id 12 
     name upperback
     direction -0.00189771 0.999673 -0.0254833   
     length 1.92213   
     axis 0 0 0   XYZ
    dof rx ry rz
    limits (-20.0 45.0)
           (-30.0 30.0)
           (-30.0 30.0)
  end
  begin
     id 13 
     name thorax
     direction 0.00335995 0.999878 0.0152401   
     length 1.93138   
     axis 0 0 0   XYZ
    dof rx ry rz
    limits (-20.0 45.0)
           (-30.0 30.0)
           (-30.0 30.0)
  end
  begin
     id 14 
     name lowerneck
     direction 0.00233191 0.998509 0.0545404   
     length 1.59408   
     axis 0 0 0   XYZ
    dof rx ry rz
    limits (-20.0 45.0)
           (-30.0 30.0)
           (-30.0 30.0)
  end
  begin
     id 15 
     name upperneck
     direction 0.07881 0.9956 -0.0506934   
     length 1.59344   
     axis 0 0 0   XYZ
    dof rx ry rz
    limits (-20.0 45.0)
           (-30.0 30.0)
           (-30.0 30.0)
  end
  begin
     id 16
     name head
     direction 0.0261681 0.999378 -0.0236299  
     length 1.60935  
     axis 0 0 0   XYZ
    dof rx ry rz
    limits (-20.0 45.0)
           (-30.0 30.0)
           (-30.0 30.0)
  end
  begin
     id 17 
     name lclavicle
     direction 0.96643 0.252035 0.0499195  
     length 3.82153  
     axis 0 0 0   XYZ
    dof ry rz
    limits (-20.0 10.0)
           (0.0 20.0)
  end
  begin
     id 18 
     name lhumerus
     direction 1 -4.48967e-011 -2.01614e-018   
     length 4.87796   
     axis 180 -30 -90   XYZ
    dof rx ry rz
    limits (-60.0 90.0)
           (-90.0 90.0)
           (-90.0 90.0)
  end
  begin
     id 19
     name lradius
     direction 1 -4.48958e-011 3.1409e-027   
     length 3.23169   
     axis 180 -30 -90   XYZ
    dof rx
    limits (-10.0 170.0)
  end
  begin
     id 20
     name lwrist
     direction 1 -4.48924e-011 1.0365e-027   
     length 1.61584   
     axis -2.56395e-016 90 90   XYZ
    dof ry
    limits (-180.0 0.0)
 end
  begin
     id 21 
     name lhand
     direction 1 -4.49055e-011 2.09488e-027   
     length 0.731324   
     axis -1.32723e-015 90 90   XYZ
    dof rx rz
    limits (-90.0 90.0)
           (-45.0 45.0)
  end
  begin
     id 22 
     name lfingers
     direction 1 -4.48935e-011 4.14981e-027   
     length 0.589612   
     axis -2.6545e-015 90 90   XYZ
    dof rx
    limits (0.0 90.0)
  end
  begin
     id 23
     name lthumb
     direction 0.707107 -6.35097e-011 0.707107   
     length 0.846569   
     axis -90 45 5.05613e-014   XYZ
    dof rx rz
    limits (-45.0 45.0)
           (-45.0 45.0)
  end
  begin
     id 24 
     name rclavicle
     direction -0.979337 0.201016 0.0221522   
     length 3.73827  
     axis 0 0 0   XYZ 
    dof ry rz
    limits (-10.0 20.0)
           (-20.0 0.0)
  end
  begin
     id 25 
     name rhumerus
     direction -1 -4.48971e-011 1.65907e-027  
     length 4.9143   
     axis 180 30 90   XYZ
    dof rx ry rz
    limits (-90.0 60.0)
           (-90.0 90.0)
           (-90.0 90.0)
  end
  begin
     id 26 
     name rradius
     direction -1 -4.4894e-011 2.17871e-028   
     length 3.29093   
     axis 180 30 90   XYZ
    dof rx
    limits (-10.0 170.0)
  end
  begin
     id 27 
     name rwrist
     direction -1 -4.48971e-011 1.04038e-027   
     length 1.64546   
     axis -2.56395e-016 -90 -90   XYZ
    dof ry
    limits (-180.0 0.0)
  end
  begin
     id 28
     name rhand
     direction -1 -4.49017e-011 2.08843e-027   
     length 0.54512   
     axis -1.32723e-015 -90 -90   XYZ
    dof rx rz
    limits (-90.0 90.0)
           (-45.0 45.0)
  end
  begin
     id 29
     name rfingers
     direction -1 -4.48918e-011 4.1439e-027   
     length 0.43949   
     axis -2.6545e-015 -90 -90   XYZ
    dof rx
    limits (0.0 90.0)
  end
  begin
     id 30
     name rthumb
     direction -0.707107 -6.35065e-011 0.707107   
     length 0.631022   
     axis -90 -45 -5.05613e-014   XYZ
    dof rx rz
    limits (-45.0 45.0)
           (-45.0 45.0)
  end
:hierarchy
  begin
    root lhipjoint rhipjoint lowerback
    lhipjoint lfemur
    lfemur ltibia
    ltibia lfoot
    lfoot ltoes
    rhipjoint rfemur
    rfemur rtibia
    rtibia rfoot
    rfoot rtoes
    lowerback upperback
    upperback thorax
    thorax lowerneck lclavicle rclavicle
    lowerneck upperneck
    upperneck head
    lclavicle lhumerus
    lhumerus lradius
    lradius lwrist
    lwrist lhand lthumb
    lhand lfingers
    rclavicle rhumerus
    rhumerus rradius
    rradius rwrist
    rwrist rhand rthumb
    rhand rfingers
  end

#!OML:ASF H:\BreakDance\Project 1\Capture day 1\Session 1\Male.ASF
:FULLY-SPECIFIED
:DEGREES
724
root -14.4018 15.2067 1.1448 164.903 14.3188 -21.9511
lowerback 9.70597 2.03562 0.722847
upperback -0.143707 2.30401 -6.27423
thorax -5.31778 0.9931 -7.38014
lowerneck -2.52103 9.56622 8.52943
upperneck 12.6691 9.81181 18.6044
head 3.75199 5.23504 4.68457
rclavicle 1.80894e-014 -4.29375e-014
rhumerus 69.5026 -41.665 -35.112
rradius 56.5344
rwrist -26.1089
rhand -51.2606 -78.4808
rfingers 7.12502
rthumb -23.7986 -612.973
lclavicle 1.80894e-014 -4.29375e-014
lhumerus 79.6571 43.9667 76.8906
lradius 75.0593
lwrist -11.8833
lhand -52.8259 -89.7206
lfingers 7.12502
lthumb -25.2989 -61.3783
rfemur -6.23989 -9.50462 -9.36287
rtibia -6.36111e-015
rfoot -31.2178 -9.53682
rtoes 63.5846
lfemur -124.594 47.7819 -37.6523
ltibia 130.603
lfoot 52.9746 -14.6787
ltoes 55.3666
725
root -14.3752 15.2178 1.10957 164.339 13.8119 -21.4812
lowerback 10.4214 1.92666 1.00746
upperback 0.139082 2.19206 -6.11718
thorax -5.4308 0.931154 -7.38706
lowerneck -2.40361 9.52329 8.39813
upperneck 11.6795 10.0255 18.4665
head 3.41141 5.28315 4.61865
rclavicle -2.70347e-014 4.45278e-014
rhumerus 69.7758 -42.0516 -35.3595
rradius 56.4117
rwrist -25.9822
rhand -51.3974 -77.6045
rfingers 7.12502
rthumb -23.9298 -613.867
lclavicle -2.70347e-014 4.45278e-014
lhumerus 79.8116 43.818 76.9555
lradius 74.9871
lwrist -11.5979
lhand -52.8749 -89.5039
lfingers 7.12502
lthumb -25.3459 -61.1683
rfemur -6.04124 -9.76172 -7.99795
rtibia 3.18055e-014
rfoot -29.7475 -13.4563
rtoes 61.7944
lfemur -125.108 45.9819 -37.3824
ltibia 130.229
lfoot 47.989 -24.9703
ltoes 52.0128
726
root -14.3482 15.2378 1.07106 163.762 13.32 -20.9758
lowerback 11.1284 1.82989 1.27826
upperback 0.405006 2.10007 -5.93983
thorax -5.55453 0.879552 -7.36552
lowerneck -2.22633 9.44355 8.22473
upperneck 10.4662 10.2566 18.2284
head 2.99534 5.32709 4.51749
rclavicle 4.8901e-014 -2.22639e-014
rhumerus 70.0749 -42.4241 -35.6379
rradius 56.235
rwrist -25.8282
rhand -51.5139 -76.714
rfingers 7.12502
rthumb -24.0415 -614.772
lclavicle 4.8901e-014 -2.22639e-014
lhumerus 79.9498 43.6358 76.9735
lradius 74.8654
lwrist -11.3235
lhand -53.0339 -89.1721
lfingers 7.12502
lthumb -25.4982 -60.8581
rfemur -5.64168 -10.001 -6.59028
rtibia -2.22639e-014
rfoot -27.5564 -17.2466
rtoes 59.3153
lfemur -125.844 44.0932 -37.1179
ltibia 129.81
lfoot 39.8935 -33.4345
ltoes 46.9322
727
root -14.3223 15.2639 1.02979 163.18 12.8476 -20.4606
lowerback 11.8099 1.74249 1.4948
upperback 0.646716 2.01972 -5.73328
thorax -5.69002 0.835206 -7.2807
lowerneck -2.01949 9.32684 7.9443
upperneck 9.03159 10.4999 17.907
head 2.50623 5.3663 4.39828
rclavicle -2.96189e-014 -3.97569e-014
rhumerus 70.4517 -42.7504 -35.9719
rradius 55.9935
rwrist -25.6288
rhand -51.5944 -75.8062
rfingers 7.12502
rthumb -24.1186 -615.69
lclavicle -2.96189e-014 -3.97569e-014
lhumerus 80.0389 43.4639 76.9257
lradius 74.6909
lwrist -11.0524
lhand -53.2638 -88.7742
lfingers 7.12502
lthumb -25.7184 -60.4919
rfemur -5.06402 -10.2255 -5.19633
rtibia -6.36111e-015
rfoot -24.9465 -20.2936
rtoes 56.3409
lfemur -126.856 42.096 -36.9647
ltibia 129.355
lfoot 28.559 -39.094
ltoes 38.5217
728
root -14.298 15.2961 0.98478 162.597 12.3979 -19.9441
lowerback 12.4945 1.65132 1.69588
upperback 0.833274 1.93452 -5.53532
thorax -5.88557 0.786572 -7.19697
lowerneck -1.71501 9.17865 7.7039
upperneck 7.16761 10.8005 17.1095
head 2.06307 5.38933 4.60445
rclavicle -6.75868e-014 -1.59028e-015
rhumerus 70.8644 -42.9949 -36.3845
rradius 55.6829
rwrist -25.3836
rhand -51.6191 -74.8475
rfingers 7.12502
rthumb -24.1423 -616.652
lclavicle -6.75868e-014 -1.59028e-015
lhumerus 79.9932 43.3081 76.6774
lradius 74.4691
lwrist -10.7514
lhand -53.5049 -88.3973
lfingers 7.12502
lthumb -25.9493 -60.1486
rfemur -4.32263 -10.4351 -3.86986
rtibia -9.54166e-015
rfoot -22.615 -21.9891
rtoes 53.8713
lfemur -128.035 40.0306 -36.8448
ltibia 128.823
lfoot 15.4472 -40.8655
ltoes 25.153
729
root -14.2762 15.3326 0.935674 162.008 11.972 -19.4239
lowerback 13.1719 1.56541 1.89307
upperback 0.966768 1.85761 -5.35254
thorax -6.13108 0.739777 -7.12958
lowerneck -1.46092 8.9835 7.20155
upperneck 5.36642 11.0149 16.8393
head 1.37938 5.40766 4.47947
rclavicle 4.41302e-014 6.36111e-015
rhumerus 71.249 -43.1696 -36.8276
rradius 55.3184
rwrist -25.0959
rhand -51.5881 -73.9103
rfingers 7.12502
rthumb -24.1126 -617.585
lclavicle 4.41302e-014 6.36111e-015
lhumerus 79.773 43.1398 76.1973
lradius 74.2222
lwrist -10.3988
lhand -53.7446 -88.0957
lfingers 7.12502
lthumb -26.1788 -59.8809
rfemur -3.42761 -10.6275 -2.66054
rtibia -6.36111e-015
rfoot -21.3258 -22.1195
rtoes 53.2044
lfemur -129.35 37.9333 -36.748
ltibia 128.178
lfoot 3.22435 -39.1106
ltoes 4.50591
730
root -14.2579 15.3706 0.883129 161.412 11.5689 -18.89
lowerback 13.8314 1.49094 2.09942
upperback 1.05155 1.79926 -5.18489
thorax -6.41456 0.699609 -7.0873
lowerneck -1.15865 8.73853 6.62929
upperneck 3.3394 11.2023 16.5987
head 0.621303 5.39957 4.38012
rclavicle -3.18055e-014 3.49861e-014
rhumerus 71.5902 -43.2879 -37.2855
rradius 54.8945
rwrist -24.7828
rhand -51.5179 -73.0447
rfingers 7.12502
rthumb -24.0453 -618.442
lclavicle -3.18055e-014 3.49861e-014
lhumerus 79.3672 42.9353 75.4815
lradius 73.9613
lwrist -9.98029
lhand -53.9435 -87.9417
lfingers 7.12502
lthumb -26.3693 -59.7552
rfemur -2.4071 -10.8044 -1.59803
rtibia 2.22639e-014
rfoot -21.2813 -20.7083
rtoes 54.8686
lfemur -130.809 35.8358 -36.7268
ltibia 127.398
lfoot -6.3948 -34.8948
ltoes -19.7507
731
root -14.2435 15.4125 0.825495 160.795 11.1689 -18.3209
lowerback 14.4857 1.42191 2.33711
upperback 1.10288 1.75607 -5.02533
thorax -6.72713 0.664061 -7.07515
lowerneck -0.84417 8.44191 6.02569
upperneck 1.13881 11.3378 16.3772
head -0.186915 5.35718 4.30773
rclavicle -3.97569e-014 3.97569e-014
rhumerus 71.8928 -43.3724 -37.7448
rradius 54.4095
rwrist -24.4751
rhand -51.4205 -72.1961
rfingers 7.12502
rthumb -23.9519 -619.278
lclavicle -3.97569e-014 3.97569e-014
lhumerus 78.8049 42.6849 74.563
lradius 73.6839
lwrist -9.49338
lhand -54.0741 -87.9598
lfingers 7.12502
lthumb -26.4942 -59.7921
rfemur -1.27592 -10.982 -0.70187
rtibia 9.54166e-015
rfoot -21.9791 -18.0373
rtoes 57.8887
lfemur -132.292 33.752 -36.655
ltibia 126.457
lfoot -13.0015 -29.3238
ltoes -38.7754
732
root -14.2327 15.4554 0.764003 160.146 10.7642 -17.7281
lowerback 15.122 1.35993 2.5796
upperback 1.14977 1.72771 -4.85969
thorax -7.03203 0.635329 -7.06044
lowerneck -0.64972 8.09201 5.55416
upperneck -1.0717 11.3535 16.0036
head -0.950182 5.26708 4.18986
rclavicle 1.21259e-014 -5.88403e-014
rhumerus 72.1875 -43.4449 -38.2035
rradius 53.8822
rwrist -24.1711
rhand -51.3739 -71.4317
rfingers 7.12502
rthumb -23.9072 -620.036
lclavicle 1.21259e-014 -5.88403e-014
lhumerus 78.1579 42.4033 73.5305
lradius 73.3821
lwrist -8.95006
lhand -54.1245 -88.1417
lfingers 7.12502
lthumb -26.5424 -59.9812
rfemur -0.0708762 -11.1597 0.00832367
rtibia -2.22639e-014
rfoot -22.6147 -14.6164
rtoes 60.8726
lfemur -133.753 31.7503 -36.5848
ltibia 125.306
lfoot -12.7569 -26.1685
ltoes -43.1082
733
root -14.2247 15.4979 0.699341 159.451 10.341 -17.1131
lowerback 15.7357 1.29209 2.80609
upperback 1.22314 1.69583 -4.6673
thorax -7.29703 0.607336 -7.00302
lowerneck -0.647454 7.70608 5.2122
upperneck -3.2234 11.2453 15.4442
head -1.63577 5.13562 4.01659
rclavicle 1.15295e-014 4.77083e-015
rhumerus 72.5722 -43.5026 -38.7088
rradius 53.3078
rwrist -23.8407
rhand -51.5636 -70.942
rfingers 7.12502
rthumb -24.0891 -620.55
lclavicle 1.15295e-014 4.77083e-015
lhumerus 77.5012 42.1435 72.4722
lradius 73.0441
lwrist -8.36388
lhand -54.0799 -88.459
lfingers 7.12502
lthumb -26.4998 -60.2921
rfemur 1.18467 -11.3437 0.532918
rtibia 1.59028e-014
rfoot -22.5978 -11.1697
rtoes 63.1108
lfemur -135.113 29.8376 -36.5176
ltibia 123.924
lfoot -11.4731 -23.7179
ltoes -45.3801
734
root -14.219 15.5384 0.632166 158.715 9.91838 -16.4738
lowerback 16.3132 1.21636 3.02416
upperback 1.33285 1.6588 -4.44498
thorax -7.50361 0.580223 -6.90208
lowerneck -0.87677 7.30232 4.95981
upperneck -5.27351 11.0259 14.7392
head -2.23111 4.97208 3.80534
rclavicle -1.64991e-014 -1.03368e-014
rhumerus 73.0989 -43.5367 -39.2991
rradius 52.6759
rwrist -23.4489
rhand -51.9085 -70.3599
rfingers 7.12502
rthumb -24.4198 -621.176
lclavicle -1.64991e-014 -1.03368e-014
lhumerus 76.8785 41.928 71.4219
lradius 72.6598
lwrist -7.74682
lhand -53.9893 -88.7475
lfingers 7.12502
lthumb -26.4131 -60.5676
rfemur 2.44566 -11.5204 0.90978
rtibia 6.36111e-015
rfoot -21.8781 -8.34966
rtoes 64.4949
lfemur -136.314 28.0686 -36.4391
ltibia 122.294
lfoot -9.62714 -21.9068
ltoes -46.2183
735
root -14.2092 15.547 0.563299 157.929 9.49308 -15.824
lowerback 16.8432 1.13281 3.21272
upperback 1.49329 1.6129 -4.18278
thorax -7.63107 0.554324 -6.73227
lowerneck -1.29804 6.89913 4.67242
upperneck -7.25343 10.7402 13.9847
head -2.77271 4.79339 3.60342
rclavicle -4.57205e-015 4.13472e-014
rhumerus 73.8597 -43.533 -40.0238
rradius 51.9488
rwrist -22.9435
rhand -52.3707 -69.7878
rfingers 7.12502
rthumb -24.8628 -621.809
lclavicle -4.57205e-015 4.13472e-014
lhumerus 76.3382 41.7665 70.4558
lradius 72.2152
lwrist -7.12688
lhand -53.896 -88.8901
lfingers 7.12502
lthumb -26.3238 -60.6968
rfemur 2.84155 -11.9229 1.85349
rtibia 2.54444e-014
rfoot -19.4823 -9.2132
rtoes 63.8744
lfemur -137.095 26.3661 -36.3602
ltibia 120.417
lfoot -8.14833 -20.4073
ltoes -46.4205
736
root -14.1984 15.5533 0.494913 157.081 9.06453 -15.179
lowerback 17.3588 1.03116 3.40512
upperback 1.68798 1.54701 -3.9177
thorax -7.7147 0.521106 -6.55386
lowerneck -1.80555 6.50843 4.26026
upperneck -9.22302 10.4407 13.2932
head -3.31887 4.61577 3.45757
rclavicle -2.127e-014 -2.70347e-014
rhumerus 74.8705 -43.4632 -40.9565
rradius 51.095
rwrist -22.2817
rhand -52.7973 -68.967
rfingers 7.12502
rthumb -25.2715 -622.687
lclavicle -2.127e-014 -2.70347e-014
lhumerus 75.8735 41.6274 69.5473
lradius 71.7038
lwrist -6.52632
lhand -53.8108 -88.9081
lfingers 7.12502
lthumb -26.2422 -60.7026
rfemur 3.29269 -12.334 2.74924
rtibia 3.18055e-014
rfoot -16.9653 -10.0664
rtoes 63.005
lfemur -137.683 24.7273 -36.2634
ltibia 118.319
lfoot -6.85705 -19.1628
ltoes -46.0794
737
root -14.1865 15.557 0.427696 156.161 8.63785 -14.5424
lowerback 17.8678 0.91573 3.62469
upperback 1.91251 1.46957 -3.66414
thorax -7.76128 0.483229 -6.3987
lowerneck -2.18676 6.10518 3.50939
upperneck -11.5812 10.2218 13.1239
head -3.63119 4.41503 3.14583
rclavicle 1.63003e-014 -7.95139e-015
rhumerus 76.0225 -43.3297 -42.049
rradius 50.1877
rwrist -21.4848
rhand -53.0346 -67.6328
rfingers 7.12502
rthumb -25.4989 -624.053
lclavicle 1.63003e-014 -7.95139e-015
lhumerus 75.4767 41.4616 68.7094
lradius 71.1463
lwrist -5.97676
lhand -53.768 -88.8326
lfingers 7.12502
lthumb -26.2012 -60.6211
rfemur 3.80933 -12.7461 3.59204
rtibia -2.54444e-014
rfoot -14.3597 -10.9303
rtoes 61.7489
lfemur -138.071 23.1414 -36.1752
ltibia 116
lfoot -5.95022 -18.1624
ltoes -45.5912
